<svg width="22" height="29" viewBox="0 0 22 29" fill="none" xmlns="http://www.w3.org/2000/svg">
<path d="M9.90625 27.9531C10.3984 28.7188 11.5469 28.7188 12.0391 27.9531C20.0234 16.4688 21.5 15.2656 21.5 11C21.5 5.20312 16.7969 0.5 11 0.5C5.14844 0.5 0.5 5.20312 0.5 11C0.5 15.2656 1.92188 16.4688 9.90625 27.9531ZM11 15.375C8.53906 15.375 6.625 13.4609 6.625 11C6.625 8.59375 8.53906 6.625 11 6.625C13.4062 6.625 15.375 8.59375 15.375 11C15.375 13.4609 13.4062 15.375 11 15.375Z" fill="#281F6B"/>
</svg>
