<svg xmlns="http://www.w3.org/2000/svg" viewBox="0 0 252.57 84.19"><defs><style>.cls-1{fill:#281f6b;}.cls-2{fill:#efcc36;}.cls-3{fill:#d32939;}</style></defs><g id="Woordmerk"><path class="cls-1" d="M132.66,27.8a10.2,10.2,0,0,1,3.7-.7c2.78,0,4.65,1.57,4.65,4.25,0,2.95-1.76,4.6-4.7,4.6a4.83,4.83,0,0,1-1.35-.17v3.4h-2.3Zm2.3,6a3.42,3.42,0,0,0,1.18.17,2.32,2.32,0,0,0,2.56-2.52,2.16,2.16,0,0,0-2.37-2.28,3.79,3.79,0,0,0-1.37.21Z"/><path class="cls-1" d="M145.25,35.76H143V27.93a7.42,7.42,0,0,1,3.38-.78,6.08,6.08,0,0,1,1.76.23v2.2a4.65,4.65,0,0,0-1.71-.28,3.9,3.9,0,0,0-1.15.19Z"/><path class="cls-1" d="M153.46,27.1a4.43,4.43,0,1,1,0,8.85A4.26,4.26,0,0,1,149,31.52,4.25,4.25,0,0,1,153.46,27.1Zm0,2a2.17,2.17,0,0,0-2.12,2.45,2.15,2.15,0,1,0,4.25,0A2.17,2.17,0,0,0,153.46,29.07Z"/><path class="cls-1" d="M161.57,35.76l-3.27-8.47h2.47l2.17,6.21,2.16-6.21h2.39l-3.24,8.47Z"/><path class="cls-1" d="M168.65,24.72A1.37,1.37,0,1,1,170,26.07,1.37,1.37,0,0,1,168.65,24.72Zm2.5,11h-2.27V27.29h2.27Z"/><path class="cls-1" d="M173.56,27.84a12.24,12.24,0,0,1,4.05-.74c2.2,0,3.62.81,3.62,3.34v5.32h-2.29V30.59a1.31,1.31,0,0,0-1.5-1.44,5.52,5.52,0,0,0-1.6.24v6.37h-2.28Z"/><path class="cls-1" d="M189.87,29.89a3.25,3.25,0,0,0-2.17-.78,2.25,2.25,0,0,0-2.41,2.39,2.33,2.33,0,0,0,2.51,2.44,3.43,3.43,0,0,0,2.14-.76v2.14a4.63,4.63,0,0,1-2.46.63A4.17,4.17,0,0,1,183,31.54a4.25,4.25,0,0,1,4.46-4.44,4.39,4.39,0,0,1,2.41.62Z"/><path class="cls-1" d="M191.75,24.72a1.36,1.36,0,0,1,1.36-1.39,1.37,1.37,0,1,1,0,2.74A1.35,1.35,0,0,1,191.75,24.72Zm2.5,11H192V27.29h2.28Z"/><path class="cls-1" d="M198.28,32.15v0a2.33,2.33,0,0,0,2.48,1.8,5.18,5.18,0,0,0,2.83-.76v1.94a5.45,5.45,0,0,1-3.06.78,4.11,4.11,0,0,1-4.48-4.33c0-2.8,1.77-4.52,4.14-4.52,2.64,0,3.67,1.74,3.67,4v1.06Zm3.45-1.37c0-1-.51-1.8-1.59-1.8a1.9,1.9,0,0,0-1.84,1.8Z"/><path class="cls-1" d="M132.15,43.47h8.2v2.11l-5.56,7.07h5.69v2.11h-8.43V52.65l5.47-7.07h-5.37Z"/><path class="cls-1" d="M149.59,54.51a14.83,14.83,0,0,1-3.49.44c-2.45,0-4-.76-4-3.27V46.29h2.3v5.2c0,1.08.48,1.58,1.67,1.58A7.16,7.16,0,0,0,147.3,53V46.29h2.29Z"/><path class="cls-1" d="M151.68,43.72a1.37,1.37,0,1,1,1.37,1.35A1.37,1.37,0,0,1,151.68,43.72Zm2.5,11h-2.27V46.29h2.27Z"/><path class="cls-1" d="M164.34,54.55a14.33,14.33,0,0,1-3.46.4C158,55,156,53.39,156,50.54a4.2,4.2,0,0,1,4.45-4.44,4,4,0,0,1,1.59.26V41.84h2.28Zm-2.28-6.17a3.15,3.15,0,0,0-1.4-.27,2.16,2.16,0,0,0-2.32,2.36A2.36,2.36,0,0,0,161,53a6.57,6.57,0,0,0,1.1-.09Z"/><path class="cls-1" d="M180,43.47h2.39V54.76H180V50.18h-5.15v4.58h-2.41V43.47h2.41v4.58H180Z"/><path class="cls-1" d="M188.48,46.1a4.43,4.43,0,1,1-4.42,4.42A4.26,4.26,0,0,1,188.48,46.1Zm0,2a2.18,2.18,0,0,0-2.13,2.45,2.15,2.15,0,1,0,4.26,0A2.18,2.18,0,0,0,188.48,48.07Z"/><path class="cls-1" d="M197,54.76h-2.28V41.84H197Z"/><path class="cls-1" d="M201.62,54.76h-2.28V41.84h2.28Z"/><path class="cls-1" d="M208.05,49.21c0-.82-.68-1.16-1.52-1.16a4.63,4.63,0,0,0-2.45.71v-2a5.78,5.78,0,0,1,2.85-.68c1.94,0,3.38.76,3.38,3v5.47a15.84,15.84,0,0,1-3.19.34c-2.15,0-3.8-.65-3.8-2.6,0-1.77,1.43-2.61,3.8-2.61h.93Zm0,2h-.76c-1.06,0-1.69.3-1.69,1s.59,1,1.5,1a4.1,4.1,0,0,0,1-.1Z"/><path class="cls-1" d="M212.41,46.84a12.19,12.19,0,0,1,4.05-.74c2.2,0,3.62.81,3.62,3.34v5.32h-2.29V49.59a1.31,1.31,0,0,0-1.5-1.44,5.52,5.52,0,0,0-1.6.24v6.37h-2.28Z"/><path class="cls-1" d="M230.12,54.55a14.19,14.19,0,0,1-3.45.4c-2.92,0-4.86-1.56-4.86-4.41a4.19,4.19,0,0,1,4.44-4.44,3.89,3.89,0,0,1,1.59.26V41.84h2.28Zm-2.28-6.17a3.15,3.15,0,0,0-1.4-.27,2.16,2.16,0,0,0-2.32,2.36A2.36,2.36,0,0,0,226.74,53a6.41,6.41,0,0,0,1.1-.09Z"/><g id="Koppelteken"><polygon class="cls-1" points="166.15 50.5 166.15 53.18 170.5 50.24 170.5 47.57 166.15 50.5"/></g></g><g id="Beeldmerk"><path class="cls-2" d="M109.29,66.38H124.8L122,64l2.52-2.28H109.35L108.92,66A.38.38,0,0,0,109.29,66.38Z"/><path class="cls-2" d="M57.2,64.34h54.42V61.7h-2a.23.23,0,0,1-.15-.41l1.72-1.24a.23.23,0,0,0-.16-.41H57.83a.23.23,0,0,0-.15.41l1.71,1.24a.23.23,0,0,1-.15.41h-2Z"/><path class="cls-2" d="M44,66.38H59.53A.37.37,0,0,0,59.9,66l-.43-4.26H44.34L46.85,64Z"/><path class="cls-2" d="M84.41,58.43c6.92,0,13.52-3.89,13.52-14.13v-17h-27v17C70.89,54.54,77.49,58.43,84.41,58.43Z"/><path class="cls-2" d="M94.23,22.44c0,.43.18.82.59.82s.6-.39.6-.82-.18-.7-.6-.7S94.23,22.08,94.23,22.44Z"/><path class="cls-2" d="M81,23.17c.41,0,.59-.39.59-.82s-.18-.71-.59-.71-.6.35-.6.71S80.53,23.17,81,23.17Z"/><path class="cls-2" d="M87.28,22.35c0,.43.18.82.6.82s.59-.39.59-.82-.18-.71-.59-.71S87.28,22,87.28,22.35Z"/><path class="cls-2" d="M99,18.72l-1.49.7a1.67,1.67,0,0,0,0,1.4l-.54-.5a1.08,1.08,0,0,0-.67-.35c-.24,0-.39.14-.52.42l-.24.55.9,1.69-1.49,1.78-1.65-1.82,1.27-1.78-.09-.61a.53.53,0,0,0-.54-.51,3.25,3.25,0,0,0-1.4.53,2.2,2.2,0,0,0,.79-1.78l-1.33-1.81H91l-1.32,1.81a2.28,2.28,0,0,0,.75,1.78A4.17,4.17,0,0,0,89,19.66c-.2,0-.42.19-.49.53l-.11.57,1.23,1.77-1.78,1.88-1.75-2,1.41-1.71-.07-.44c-.06-.39-.22-.69-.64-.69a3.44,3.44,0,0,0-1.44.51,2.19,2.19,0,0,0,.73-1.76l-1.26-1.72H84l-1.26,1.72a2.19,2.19,0,0,0,.73,1.76A3.44,3.44,0,0,0,82,19.6c-.42,0-.58.3-.64.69l-.07.44,1.41,1.71-1.75,2L79.2,22.53l1.22-1.77-.11-.57c-.07-.34-.29-.53-.49-.53a4.17,4.17,0,0,0-1.46.56,2.28,2.28,0,0,0,.75-1.78l-1.32-1.81h-.88l-1.32,1.81a2.22,2.22,0,0,0,.78,1.78,3.25,3.25,0,0,0-1.4-.53.54.54,0,0,0-.54.51l-.09.61,1.27,1.78L74,24.41l-1.49-1.78.9-1.69-.24-.55c-.13-.28-.28-.42-.52-.42a1.08,1.08,0,0,0-.67.35l-.54.5a1.67,1.67,0,0,0,0-1.4l-1.48-.7-.39.2,2.3,7H97l2.3-7Z"/><path class="cls-2" d="M74,23.26c.41,0,.59-.39.59-.82s-.18-.7-.59-.7-.6.34-.6.7S73.58,23.26,74,23.26Z"/><path class="cls-3" d="M71.28,55.71a1.69,1.69,0,0,0-1,.39l-.61.45h-.93L64,51.78a5.12,5.12,0,0,0,3-1.06C63,49,62.74,44.92,59.63,43.17A4.82,4.82,0,0,0,57,44.72a.92.92,0,0,1,.45.77,1,1,0,0,1-1.2.95,3.06,3.06,0,0,1-.18-1A2.08,2.08,0,0,1,57,43.67c1.2-.87,3.32-1.37,4.75-3.41A4.69,4.69,0,0,1,59,37a4.73,4.73,0,0,1-2.07.46,5.44,5.44,0,0,1-2.37-.57A12.13,12.13,0,0,1,53,41.43c-1.5,2.62-3.51,3.58-5.2,3.58s-3-.83-3-2S45.7,40.81,48,40c2.88-1,4-1.84,4-3.41A2.25,2.25,0,0,0,51.36,35a2.16,2.16,0,0,0,.28-1,2.43,2.43,0,0,0-.74-1.68l-2.29-2.24a1.71,1.71,0,0,1-1.27.55,1.75,1.75,0,0,1-1.74-1.78A2.25,2.25,0,0,0,44.05,31a2.19,2.19,0,0,0,.66,1.59l.85.81V35a1.64,1.64,0,0,1,.68-.15,2.17,2.17,0,0,1,1.48.73,2.26,2.26,0,0,0,1.64.72,2.11,2.11,0,0,0,.86-.19,1,1,0,0,1,.27.68c0,.75-1.32,1.43-3.23,2C44.58,39.61,43.1,41,43.1,43c0,2.27,1.91,3.57,4.5,3.57a7.2,7.2,0,0,0,1.59-.16l.65,3.42H44.53a2.48,2.48,0,0,1,.36,1.27,3.8,3.8,0,0,1-1.45,2.5l4.66,7h3.38a1.36,1.36,0,0,0,1.41-1.09l.35,0,.47-.8a2.07,2.07,0,0,0-2-1.25c-.53,0-1,.77-1.33,1.33C49,57.6,47.88,56.4,47.88,54.89a2.41,2.41,0,0,1,2.64-2.52,5,5,0,0,1,3,1.17L57,50.29l-.64-3.06c2.33.42,4,1.31,4,2.92a2.4,2.4,0,0,1-1.16,2l8.08,6.33h5.8L73.21,57l-1-.87A1.4,1.4,0,0,0,71.28,55.71Z"/><path class="cls-3" d="M123.94,51.06a2.47,2.47,0,0,1,.35-1.27H119l.66-3.42a7,7,0,0,0,1.58.16c2.59,0,4.5-1.3,4.5-3.57,0-2-1.47-3.35-4.15-4.17-1.92-.58-3.23-1.26-3.23-2a1,1,0,0,1,.27-.68,2.08,2.08,0,0,0,.86.19,2.26,2.26,0,0,0,1.63-.72,2.17,2.17,0,0,1,1.48-.73,1.68,1.68,0,0,1,.69.15v-1.6l.84-.81a2.19,2.19,0,0,0,.66-1.59,2.25,2.25,0,0,0-1.55-2.15,1.75,1.75,0,0,1-1.74,1.78,1.71,1.71,0,0,1-1.27-.55l-2.29,2.24a2.42,2.42,0,0,0-.73,1.68,2.15,2.15,0,0,0,.27,1,2.29,2.29,0,0,0-.65,1.61c0,1.57,1.15,2.42,4,3.41,2.28.79,3.27,1.6,3.27,2.94s-1.22,2-3,2-3.69-1-5.2-3.58a12.31,12.31,0,0,1-1.58-4.52,5.44,5.44,0,0,1-2.37.57,4.65,4.65,0,0,1-2.06-.46,4.72,4.72,0,0,1-2.8,3.24c1.43,2,3.56,2.54,4.75,3.41a2.09,2.09,0,0,1,1,1.74,3.07,3.07,0,0,1-.19,1,1,1,0,0,1-1.2-.95.92.92,0,0,1,.45-.77,4.82,4.82,0,0,0-2.64-1.55c-3.1,1.75-3.39,5.81-7.34,7.55a5.14,5.14,0,0,0,3,1.06l-4.77,4.77h-.93l-.61-.45a1.69,1.69,0,0,0-1-.39,1.4,1.4,0,0,0-1,.44l-1,.87.14,1.49h5.8l8.08-6.33a2.43,2.43,0,0,1-1.16-2c0-1.61,1.66-2.5,4-2.92l-.63,3.06,3.44,3.25a5,5,0,0,1,3-1.17A2.42,2.42,0,0,1,121,54.89c0,1.51-1.08,2.71-2.54,3.83-.29-.56-.81-1.33-1.33-1.33a2.07,2.07,0,0,0-2,1.25l.47.8.35,0a1.36,1.36,0,0,0,1.41,1.09h3.38l4.67-7A3.76,3.76,0,0,1,123.94,51.06Z"/><path class="cls-3" d="M101.45,39a7.08,7.08,0,0,0-.54,1.81,6.26,6.26,0,0,1-1,2.5l-.36.54L99,43.54a1.27,1.27,0,0,0-1.21.78,1.6,1.6,0,0,0-.08.78l0,.34v0a1.17,1.17,0,0,0-.77.94,1.9,1.9,0,0,0,0,.35l.3.71.06.14H98a1.38,1.38,0,0,0,.05.55,1,1,0,0,0,.37.59l.18.14.19.09a1.19,1.19,0,0,0,.44.11,2.45,2.45,0,0,0,1.13-.46.51.51,0,0,0,.48.25h0a.8.8,0,0,0,.55-.25l.17-.16.22-.21a1,1,0,0,0,.33-.72,1.52,1.52,0,0,0-.73-1l.15-.23.92.65c.42-.91,0-1.7,0-2.43s.56-1.28,1.65-2.23a5.15,5.15,0,0,0,1.48-1.91,4.42,4.42,0,0,0-.66-2.6A3.68,3.68,0,0,1,101.45,39Z"/><path class="cls-3" d="M91.21,46c1.47,0,2.66-.78,2.66-2.15,0-1.21-.84-2-2.46-2.51-1.15-.35-2-.74-2-1.25a.55.55,0,0,1,.18-.37,1.39,1.39,0,0,0,.52.11,1.32,1.32,0,0,0,1-.43,1.25,1.25,0,0,1,.87-.42,1.18,1.18,0,0,1,.41.09v-1l.52-.52a1.37,1.37,0,0,0-.54-2.25,1.05,1.05,0,0,1-1,1.07,1.09,1.09,0,0,1-.77-.32l-1.41,1.44a1.34,1.34,0,0,0-.41,1,1.13,1.13,0,0,0,.18.58,1.49,1.49,0,0,0-.38,1c0,.94.68,1.39,2.42,2,1.37.47,1.94.89,1.94,1.76S92.21,45,91.12,45A3.64,3.64,0,0,1,88,42.88a6.1,6.1,0,0,1-.94-2.59,3.17,3.17,0,0,1-2.61.1,3.94,3.94,0,0,1-1.75,1.77c.31.7,2,1.57,2.59,1.9a1.4,1.4,0,0,1,.84,1.19,1.2,1.2,0,0,1-.19.64c-.49,0-.71-.27-.71-.55a.59.59,0,0,1,.26-.47,2.72,2.72,0,0,0-1.26-.79c-1.83,1-2.56,3.41-4.67,4.4a3,3,0,0,0,1.76.66L78.47,52h-.56l-.36-.27a1.11,1.11,0,0,0-.55-.24.9.9,0,0,0-.53.19l-.68.6-.27.9h3.85l4.86-3.81a1.36,1.36,0,0,1-.7-1.14c0-.92,1.12-1.62,2.42-1.94l-.4,1.94,2,1.9a3.15,3.15,0,0,1,2-.76A1.41,1.41,0,0,1,91,50.86a3.2,3.2,0,0,1-1.44,2.57c-.22-.47-.47-.81-.84-.81s-1,.26-1.14.75l.28.49.21,0a.82.82,0,0,0,.85.66h2l2.77-4.31a2.14,2.14,0,0,1-.85-1.56,1.49,1.49,0,0,1,.21-.76h-3.2l.38-2.07A4.44,4.44,0,0,0,91.21,46Z"/><path class="cls-3" d="M67.09,35.69c0-.92.83-1.57.83-2.62a2,2,0,0,0-1.2-1.95c1.24,0,2.16-.84,2.16-1.37-1.84,0-2.73-2-5-2-1.7,0-1.87.85-3,.85-.92,0-.92-.45-2.23-.44v-.32a2.51,2.51,0,0,1,2.23.31,1,1,0,0,0,.49-.85,1,1,0,0,0-.76-.94,1,1,0,0,0-.6-.91l-.2.78c-1.21.05-1.46.48-2.19.48-.58,0-.84-.41-.95-1a5,5,0,0,1-.07-.9c0-.11,0-.19,0-.29,0-1.88.58-2.51,1.32-2.51s1,.48,2.11.74l.1.84a1.07,1.07,0,0,0,.78-.66c.92.14,1.34-.15,1.34-1.19v-1l.22-.27V19.33l-1.83-.57-.35.13L60,18.4l-2.23-.31-.49.4H54.09c-.53,0-.77.18-.77.47a1.63,1.63,0,0,0,.62,1c-2.23.4-2.94,1.68-2.94,2.63,0,1.53.43,1.51.43,3.36a3.13,3.13,0,0,1-1,2.39L53.2,31.1a3.51,3.51,0,0,1,1.28,2.46,2.36,2.36,0,0,1-.88,1.76,4.42,4.42,0,0,0,3.31,1.46,3.92,3.92,0,0,0,2.58-.93c.23,2.38,1.26,3.2,3.11,4a4.25,4.25,0,0,1,1.4-3.2,3.13,3.13,0,0,0,2.74,1.66,1.82,1.82,0,0,0,1.91-1.18A1.41,1.41,0,0,1,67.09,35.69ZM59.54,19.61a.41.41,0,0,1-.4.23.87.87,0,0,1-.8.46,1.07,1.07,0,0,1-.89-.51A2.86,2.86,0,0,1,59.54,19.61Z"/><path class="cls-3" d="M70,23.08l0-.52v-.15a1,1,0,0,0-.44-.91.64.64,0,0,0-.34-.09H69a.56.56,0,0,0-.29-.59.94.94,0,0,0-.49-.15,1.21,1.21,0,0,0-1.18.74c-.4,0-.85.51-.85,1.32,0,1,1.32,1.31.88,2.07l-1.55,2.72c1.43.46,1.82,1.17,3,1.5l.86-3.44c.21-.84,1.27-.93,1.28-1.74a.81.81,0,0,0-.12-.42.75.75,0,0,0-.07-.12Z"/><path class="cls-3" d="M81.25,40.85a2.15,2.15,0,0,1-2.4.45l-1.11,2.31-.33-.27a.73.73,0,0,0-.81.74v.19a.7.7,0,0,0-.48.45,1,1,0,0,0,0,.18l.09.36,0,.12.36,0a.55.55,0,0,0,.06.56h0l.36.38h0a.6.6,0,0,0,.74-.24c.11.22.24.25.37.2h0l.47-.22,0,0a.65.65,0,0,0,.11-.34.89.89,0,0,0-.33-.55l.1-.11.26.24c.25-.42,0-1,.33-1.24L81.62,42A3.35,3.35,0,0,0,81.25,40.85Z"/><path class="cls-3" d="M76.34,34.11l-.09.12-.1.14a.49.49,0,0,0,0,.34.57.57,0,0,0,.31.24c.23.08.51.1.72.18a.63.63,0,0,1,.23.16l1.08,1.46a2.55,2.55,0,0,1,1.25-1.86l-1.2-.41a.61.61,0,0,1-.4-.73,1,1,0,0,0,0-.91.84.84,0,0,0-.46-.41.44.44,0,0,0-.34,0,.63.63,0,0,0-.48-.2.84.84,0,0,0-.38.08.58.58,0,0,0-.25.24.38.38,0,0,0,0,.33l-.19.1,0,.08a.68.68,0,0,0,0,.65l0,0Z"/><path class="cls-3" d="M71.84,46.4a1.18,1.18,0,0,0-.78-.94v0l0-.34a1.49,1.49,0,0,0-.08-.78,1.27,1.27,0,0,0-1.21-.78l-.49.31L69,43.31a6.16,6.16,0,0,1-1.06-2.5A7.08,7.08,0,0,0,67.38,39,3.7,3.7,0,0,1,64,37.74a4.5,4.5,0,0,0-.66,2.6,5.15,5.15,0,0,0,1.48,1.91c1.09,1,1.65,1.49,1.65,2.23s-.46,1.52,0,2.43l.92-.65.15.23a1.53,1.53,0,0,0-.72,1,1,1,0,0,0,.32.72l.23.21.16.16a.8.8,0,0,0,.56.25h0a.5.5,0,0,0,.47-.25,2.49,2.49,0,0,0,1.13.46,1.69,1.69,0,0,0,.63-.2l.19-.14a1,1,0,0,0,.36-.59,1.57,1.57,0,0,0,.06-.55h.67l.06-.14.29-.71A1.94,1.94,0,0,0,71.84,46.4Z"/><path class="cls-3" d="M89.51,35a1.92,1.92,0,0,1-.63-1.54c0-.67.28-1.28.28-2s-.43-1.26-1.77-1.5a1,1,0,0,0,.37-.61c0-.19-.15-.26-.48-.26H85.41l-.29-.24L83.78,29l-.17.29-.21-.08-1.1.35v.7l.13.16V31c0,.59.26.8.81.71.11.22.28.4.47.4l.07-.51c.36-.07,1-.44,1.25-.44.46,0,.79.34.81,1.61v.1a1.84,1.84,0,0,1-.09.57.56.56,0,0,1-.53.47c-.55,0-.66-.29-1.31-.29l-.12-.47a.59.59,0,0,0-.36.55.57.57,0,0,0-.46.54.67.67,0,0,0,.35.58,2.08,2.08,0,0,1,1.73-.08v.4a5.69,5.69,0,0,0-1.69.12c-.61,0-.93-.29-1.86-.29a2.21,2.21,0,0,0-2.38,2c0,.87.4,1.1.4,2.16a1,1,0,0,1-1,1,1.31,1.31,0,0,0,1.19.77,2,2,0,0,0,1.63-1,3.32,3.32,0,0,1,.86,1.83,3,3,0,0,0,1.94-2.21,2.45,2.45,0,0,0,1.51.52,3.16,3.16,0,0,0,2-.85,1,1,0,0,1-.56-1,2.23,2.23,0,0,1,.8-1.57ZM84.74,30.2a.44.44,0,0,1-.48-.32.25.25,0,0,1-.24-.13,1.8,1.8,0,0,1,1.26.1A.62.62,0,0,1,84.74,30.2Z"/><path class="cls-3" d="M118.41,28.32a3.11,3.11,0,0,1-1-2.39c0-1.85.43-1.83.43-3.36,0-.95-.71-2.23-2.94-2.63a1.63,1.63,0,0,0,.62-1c0-.29-.24-.47-.77-.47H111.6l-.5-.4-2.23.31-.26.49-.36-.13-1.83.57V20.5l.22.27v1c0,1,.42,1.33,1.34,1.19a1.07,1.07,0,0,0,.78.66l.11-.84c1.1-.26,1.42-.74,2.1-.74s1.27.63,1.32,2.52a2.53,2.53,0,0,1,0,.28,4.91,4.91,0,0,1-.07.9c-.11.61-.37,1-1,1-.73,0-1-.43-2.18-.48l-.21-.78a1,1,0,0,0-.6.91,1,1,0,0,0-.75.94,1,1,0,0,0,.49.85,2.5,2.5,0,0,1,2.23-.31v.32c-1.32,0-1.31.44-2.23.44-1.16,0-1.34-.85-3-.85-2.32,0-3.21,2-5,2,0,.53.91,1.35,2.15,1.37a2,2,0,0,0-1.2,1.95c0,1,.83,1.7.83,2.62a1.41,1.41,0,0,1-1.56,1.45,1.84,1.84,0,0,0,1.92,1.18,3.14,3.14,0,0,0,2.74-1.66,4.28,4.28,0,0,1,1.39,3.2c1.85-.81,2.89-1.63,3.11-4a3.92,3.92,0,0,0,2.58.93,4.4,4.4,0,0,0,3.31-1.46,2.35,2.35,0,0,1-.87-1.76,3.48,3.48,0,0,1,1.27-2.46Zm-7.93-8a.87.87,0,0,1-.8-.46.41.41,0,0,1-.4-.23,2.9,2.9,0,0,1,2.1.18A1.09,1.09,0,0,1,110.48,20.3Z"/><path class="cls-3" d="M101.71,24.8c-.44-.76.88-1.05.88-2.07,0-.81-.45-1.32-.85-1.32a1.21,1.21,0,0,0-1.18-.74.93.93,0,0,0-.5.16.56.56,0,0,0-.28.58h-.21a.82.82,0,0,0-.35.09,1,1,0,0,0-.42.91v.15l0,.52-.48.22a.75.75,0,0,0-.07.12,1,1,0,0,0-.12.42c0,.81,1.07.9,1.28,1.74l.86,3.44c1.14-.33,1.52-1,3-1.5Z"/><path class="cls-3" d="M62.83,63l-.73-2h.45l.54,1.53L63.62,61h.45l-.74,2Z"/><path class="cls-3" d="M64.89,63h-.42V61h.42Z"/><path class="cls-3" d="M67,61.55a.8.8,0,0,0-.56-.21.59.59,0,0,0-.61.64.6.6,0,0,0,.61.65.53.53,0,0,0,.23,0v-.54h.41v.79a1.45,1.45,0,0,1-.65.14.94.94,0,0,1-1-1,1,1,0,0,1,1-1,1.13,1.13,0,0,1,.58.14Z"/><path class="cls-3" d="M68.11,63h-.42V61h.42Z"/><path class="cls-3" d="M68.77,61h.42v1.59H70V63H68.77Z"/><path class="cls-3" d="M70.91,62.54l-.15.41h-.44l.76-2h.5l.76,2h-.45l-.15-.41Zm.42-1.14-.3.8h.58Z"/><path class="cls-3" d="M73.44,63H73V61.36h-.6V61H74v.36h-.6Z"/><path class="cls-3" d="M75.77,62.59V63H74.51V61h1.24v.36h-.83v.43h.77v.36h-.77v.44Z"/><path class="cls-3" d="M78,61a4.83,4.83,0,0,1,.59,0c.71,0,1.12.36,1.12,1a1,1,0,0,1-1.12,1,3.34,3.34,0,0,1-.59,0Zm.42,1.6h.21A.6.6,0,0,0,79.3,62c0-.4-.26-.6-.66-.6h-.2Z"/><path class="cls-3" d="M81.46,62.59V63H80.2V61h1.24v.36h-.83v.43h.77v.36h-.77v.44Z"/><path class="cls-3" d="M82.86,61a1,1,0,1,1-1,1A1,1,0,0,1,82.86,61Zm0,.37a.64.64,0,1,0,.58.64A.59.59,0,0,0,82.86,61.34Z"/><path class="cls-3" d="M87.15,61.54a.75.75,0,0,0-.53-.2A.58.58,0,0,0,86,62a.59.59,0,0,0,.6.63.85.85,0,0,0,.55-.2v.43a1,1,0,0,1-.57.14,1,1,0,0,1-1-1,1,1,0,0,1,1-1,1,1,0,0,1,.53.13Z"/><path class="cls-3" d="M88.64,61a1,1,0,1,1-1,1A1,1,0,0,1,88.64,61Zm0,.37a.64.64,0,0,0,0,1.27.64.64,0,0,0,0-1.27Z"/><path class="cls-3" d="M91.47,62.31V61h.4v2h-.4l-.9-1.3V63h-.4V61h.42Z"/><path class="cls-3" d="M92.54,63V61h1.13v.36H93v.49h.65v.36H93V63Z"/><path class="cls-3" d="M94.63,63h-.42V61h.42Z"/><path class="cls-3" d="M95.29,61a4.83,4.83,0,0,1,.59,0c.71,0,1.12.36,1.12,1a1,1,0,0,1-1.12,1,3.34,3.34,0,0,1-.59,0Zm.42,1.6h.21a.6.6,0,0,0,.65-.67c0-.4-.26-.6-.66-.6h-.2Z"/><path class="cls-3" d="M98.83,62.59V63H97.56V61h1.25v.36H98v.43h.77v.36H98v.44Z"/><path class="cls-3" d="M100.73,62.31V61h.41v2h-.4l-.91-1.3V63h-.4V61h.42Z"/><path class="cls-3" d="M102.62,63h-.41V61.36h-.6V61h1.61v.36h-.6Z"/><path class="cls-3" d="M105,62.59V63H103.7V61h1.24v.36h-.83v.43h.76v.36h-.76v.44Z"/><path class="cls-3" d="M105.49,62.43a.86.86,0,0,0,.53.2c.16,0,.31-.06.31-.22s-.12-.2-.32-.26c-.39-.11-.55-.28-.55-.61a.57.57,0,0,1,.65-.57.86.86,0,0,1,.51.14v.41a.79.79,0,0,0-.5-.2c-.17,0-.26.08-.26.2s.11.2.34.26c.39.11.54.29.54.62s-.32.58-.72.58a1,1,0,0,1-.53-.14Z"/><path class="cls-1" d="M94.71,58.56l-.12-.1c.06-.93.62-1.34,1.12-1.34L96,58.27A2.16,2.16,0,0,0,94.71,58.56Z"/><path class="cls-1" d="M96.64,58.4A3.83,3.83,0,0,1,98,58.31a1.31,1.31,0,0,1-.24-.76,1.75,1.75,0,0,1,0-.32,1.34,1.34,0,0,0-1.19,1Z"/><path class="cls-1" d="M100.39,58.57h-.8l-.06-.1a1,1,0,0,1,.81-.62.64.64,0,0,1,.18.4A.47.47,0,0,1,100.39,58.57Z"/><path class="cls-1" d="M115.09,59.8l-.13-.11c.06-.91.57-1.46,1.22-1.46l0,1.26A1.85,1.85,0,0,0,115.09,59.8Z"/><path class="cls-1" d="M116.23,60.36l-.08-.16a1.33,1.33,0,0,1,1.23-1,1,1,0,0,0-.11.42,1.25,1.25,0,0,0,.21.65A3.16,3.16,0,0,0,116.23,60.36Z"/><path class="cls-1" d="M119.87,60.61h-.8l0-.1a.94.94,0,0,1,.8-.62.59.59,0,0,1,.18.4A.47.47,0,0,1,119.87,60.61Z"/><path class="cls-1" d="M90,54.57l0-.07a.57.57,0,0,1,.48-.37.36.36,0,0,1,.11.25.31.31,0,0,1-.08.19Z"/><path class="cls-1" d="M88.26,54.41a2,2,0,0,1,.75,0,.76.76,0,0,1-.13-.4.7.7,0,0,1,.05-.25.83.83,0,0,0-.72.61Z"/><path class="cls-1" d="M87.57,54.08,87.5,54c.07-.9.6-.89.82-.85l-.08.71A1.29,1.29,0,0,0,87.57,54.08Z"/><path class="cls-1" d="M78.18,53.2l0-.07a.58.58,0,0,1,.49-.37.32.32,0,0,1,0,.44Z"/><path class="cls-1" d="M76.41,53.09a3,3,0,0,1,.76-.05.57.57,0,0,1-.16-.33.51.51,0,0,1,.13-.32.84.84,0,0,0-.78.61Z"/><path class="cls-1" d="M75.25,53.19l-.07-.06c.07-.64.4-.8.69-.8L76,53A1.24,1.24,0,0,0,75.25,53.19Z"/><path class="cls-1" d="M74.12,58.55a2.22,2.22,0,0,0-1.26-.29l.26-1.15c.49,0,1.06.41,1.11,1.34Z"/><path class="cls-1" d="M72.18,58.39l.08-.15a1.36,1.36,0,0,0-1.19-1,1.86,1.86,0,0,1,0,.33,1.22,1.22,0,0,1-.24.75A3.83,3.83,0,0,1,72.18,58.39Z"/><path class="cls-1" d="M68.43,58.56a.44.44,0,0,1-.12-.31.59.59,0,0,1,.18-.41,1,1,0,0,1,.8.62l-.05.1Z"/><path class="cls-1" d="M53.73,59.79a1.92,1.92,0,0,0-1.13-.31l0-1.25c.64,0,1.15.54,1.21,1.46Z"/><path class="cls-1" d="M52.59,60.35a3.35,3.35,0,0,0-1.25-.09,1.12,1.12,0,0,0,.21-.65,1,1,0,0,0-.11-.42,1.34,1.34,0,0,1,1.23,1Z"/><path class="cls-1" d="M49,60.6a.43.43,0,0,1-.13-.31.59.59,0,0,1,.18-.41.94.94,0,0,1,.8.62l0,.1Z"/><path class="cls-1" d="M97,46.4a1.77,1.77,0,0,0-.91,1.37l.18.13a5.39,5.39,0,0,1,1-.44l-.3-.71A1.9,1.9,0,0,1,97,46.4Z"/><path class="cls-1" d="M100.84,48.88h0a2.94,2.94,0,0,1,.25.55l.22-.05a1.72,1.72,0,0,0,.26-.9l-.17.16A.8.8,0,0,1,100.84,48.88Z"/><path class="cls-1" d="M97.8,44.32a1.67,1.67,0,0,0-1.41,1l.09.13a5.6,5.6,0,0,1,1.28-.05l0-.34A1.6,1.6,0,0,1,97.8,44.32Z"/><path class="cls-1" d="M98.41,48.74a1,1,0,0,1-.37-.59,1.54,1.54,0,0,0,0,1.63l.22,0a3.37,3.37,0,0,1,.56-.85l-.19-.09Z"/><path class="cls-1" d="M56.59,25.73a3.74,3.74,0,0,1,2.46-1.05c1.94,0,2.52.76,4,.76s2.16-.63,2.16-1.76a1.34,1.34,0,0,0-1.42-1.5c-.59,0-1.29.26-1.29,1a.87.87,0,0,0,.83.92c.25,0,.25-.18.45-.18a.19.19,0,0,1,.2.22c0,.2-.26.58-1,.58-1.08,0-2.17-.9-3.84-.9a4.77,4.77,0,0,0-2.62.68c0,.1,0,.18,0,.29A5,5,0,0,0,56.59,25.73Z"/><path class="cls-1" d="M70.77,22.36a1.59,1.59,0,0,0-.75.2l0,.52.48.22a.75.75,0,0,1,.07.12,2.93,2.93,0,0,1,.75-.74v-.23A1.86,1.86,0,0,0,70.77,22.36Z"/><path class="cls-1" d="M69,21.41h.21a.64.64,0,0,1,.34.09c.23-.18.49-.37.69-.51v-.18a1.49,1.49,0,0,0-.76-.17,1.93,1.93,0,0,0-.77.18A.56.56,0,0,1,69,21.41Z"/><path class="cls-1" d="M77.43,32.45a.44.44,0,0,1,.34,0,1,1,0,0,0-.93-.48l0,.08a2.1,2.1,0,0,1,.15.22A.63.63,0,0,1,77.43,32.45Z"/><path class="cls-1" d="M76.25,34.23l.09-.12-.22-.34,0,0a.89.89,0,0,0-.49.33l0,.11A1.78,1.78,0,0,1,76.25,34.23Z"/><path class="cls-1" d="M76.23,35.12l0,.12a1,1,0,0,0,1-.11c-.21-.08-.49-.1-.72-.18A1.4,1.4,0,0,1,76.23,35.12Z"/><path class="cls-1" d="M76.32,32.9a.38.38,0,0,1,0-.33,1,1,0,0,0-.72.14v.12a2.84,2.84,0,0,1,.49.25l0-.08Z"/><path class="cls-1" d="M78.1,46.35a1.38,1.38,0,0,1,.13.47h.13a1,1,0,0,0,.25-.7l-.47.22Z"/><path class="cls-1" d="M76.59,46.65l.11,0a2,2,0,0,1,.28-.31L76.62,46A.87.87,0,0,0,76.59,46.65Z"/><path class="cls-1" d="M76.11,44.72a1,1,0,0,0-.43.55l.08.09.4-.1-.09-.36A1,1,0,0,1,76.11,44.72Z"/><path class="cls-1" d="M76.77,43.6a.89.89,0,0,0-.67.41l0,.08a2.69,2.69,0,0,1,.47,0v-.06A.71.71,0,0,1,76.77,43.6Z"/><path class="cls-1" d="M71.1,45.1l0,.34a5.58,5.58,0,0,1,1.28.05l.09-.13a1.67,1.67,0,0,0-1.41-1A1.49,1.49,0,0,1,71.1,45.1Z"/><path class="cls-1" d="M67.43,48.63l-.16-.16a1.63,1.63,0,0,0,.25.9l.23.05a2,2,0,0,1,.25-.55h0A.8.8,0,0,1,67.43,48.63Z"/><path class="cls-1" d="M70.23,48.88A1.14,1.14,0,0,1,70,49a3.12,3.12,0,0,1,.56.85l.23,0a1.56,1.56,0,0,0,0-1.63,1,1,0,0,1-.36.59Z"/><path class="cls-1" d="M72.74,47.77a1.78,1.78,0,0,0-.9-1.37,1.94,1.94,0,0,1,0,.35l-.29.71a6,6,0,0,1,1,.44Z"/><path class="cls-1" d="M85.84,32.81a3,3,0,0,0-1.57-.4c-1,0-1.67.55-2.32.55-.45,0-.61-.23-.61-.36a.12.12,0,0,1,.12-.13c.12,0,.12.11.28.11a.52.52,0,0,0,.49-.55c0-.47-.42-.63-.77-.63a.83.83,0,0,0-.86.9c0,.71.62,1.07,1.29,1.07,1.09,0,1.27-.46,2.44-.46a2.19,2.19,0,0,1,1.42.57,1.84,1.84,0,0,0,.09-.57Z"/><path class="cls-1" d="M112.29,24.55a4.76,4.76,0,0,0-2.61-.69c-1.67,0-2.77.91-3.85.91-.75,0-1-.38-1-.59A.19.19,0,0,1,105,24c.2,0,.2.18.46.18a.86.86,0,0,0,.82-.92c0-.78-.7-1-1.28-1a1.34,1.34,0,0,0-1.43,1.49c0,1.13.8,1.77,2.16,1.77s2.08-.76,4-.76a3.76,3.76,0,0,1,2.46,1,4.91,4.91,0,0,0,.07-.9A2.53,2.53,0,0,0,112.29,24.55Z"/><path class="cls-1" d="M99.78,21.41a.56.56,0,0,1,.28-.58,1.85,1.85,0,0,0-.76-.19,1.5,1.5,0,0,0-.76.18V21c.21.14.46.32.68.5a.82.82,0,0,1,.35-.09Z"/><path class="cls-1" d="M98.84,23.08l0-.52a1.78,1.78,0,0,0-.76-.19,1.86,1.86,0,0,0-.51.09v.22a3.1,3.1,0,0,1,.75.74.75.75,0,0,1,.07-.12Z"/></g></svg>