<?xml version="1.0" standalone="no"?>
<!DOCTYPE svg PUBLIC "-//W3C//DTD SVG 20010904//EN"
 "http://www.w3.org/TR/2001/REC-SVG-20010904/DTD/svg10.dtd">
<svg version="1.0" xmlns="http://www.w3.org/2000/svg"
 width="1000.000000pt" height="1000.000000pt" viewBox="0 0 1000.000000 1000.000000"
 preserveAspectRatio="xMidYMid meet">
<metadata>
Created by potrace 1.14, written by Peter Selinger 2001-2017
</metadata>
<g transform="translate(0.000000,1000.000000) scale(0.100000,-0.100000)"
fill="#000000" stroke="none">
<path d="M4296 7346 c-34 -25 -126 -162 -126 -187 0 -14 12 -50 28 -80 l27
-54 -35 17 c-81 40 -115 29 -131 -41 -9 -39 -7 -47 14 -75 13 -17 40 -55 61
-84 l37 -53 -77 -85 c-42 -47 -80 -81 -84 -77 -108 126 -129 155 -123 170 4 9
22 45 40 80 31 57 33 68 23 97 -24 72 -71 81 -131 25 -17 -16 -32 -29 -34 -29
-2 0 -1 17 1 38 6 65 -2 76 -80 114 -52 25 -78 33 -93 27 -23 -8 -22 -17 20
-136 l14 -42 -36 -1 c-20 0 -67 0 -106 0 -71 0 -88 -7 -138 -54 -15 -14 -31
-26 -35 -26 -16 -1 -42 -51 -47 -90 -6 -48 11 -86 61 -142 40 -45 42 -40 -50
-201 -36 -63 -67 -119 -68 -125 -2 -6 26 -25 62 -44 36 -19 88 -48 115 -66 28
-17 61 -33 74 -34 23 -3 26 3 48 92 65 259 62 251 121 306 50 46 55 55 54 90
-1 39 11 74 20 58 3 -5 24 -66 47 -136 l42 -126 1198 0 1198 0 43 134 c34 107
46 132 56 123 8 -6 11 -22 8 -39 -8 -36 8 -63 67 -119 l48 -46 42 -170 c23
-93 43 -172 45 -174 6 -7 86 31 120 56 18 13 61 38 96 56 l64 32 -79 139 c-89
154 -88 147 -23 225 33 40 37 50 35 95 -2 51 -27 102 -55 113 -8 3 -29 20 -48
39 -32 32 -36 33 -112 34 -44 0 -93 1 -111 1 l-32 0 13 42 c7 23 19 59 27 80
12 35 12 40 -4 52 -16 12 -27 9 -80 -16 -90 -42 -97 -50 -97 -110 l0 -51 -40
36 c-31 28 -47 35 -66 32 -31 -6 -27 -1 -52 -51 l-20 -40 44 -80 43 -81 -71
-82 -70 -83 -52 57 c-72 80 -96 108 -96 114 0 3 26 42 59 87 58 82 58 83 48
127 -16 70 -45 76 -150 31 -15 -6 -13 -1 7 30 14 21 26 45 27 54 0 9 2 26 5
39 3 16 -13 45 -53 100 -74 101 -66 95 -114 97 -41 2 -42 1 -106 -84 -60 -81
-63 -88 -59 -130 3 -24 17 -61 30 -82 l25 -38 -55 25 c-30 13 -60 24 -68 24
-19 0 -46 -34 -52 -66 -3 -16 -7 -30 -9 -33 -3 -2 19 -38 49 -80 29 -42 56
-81 59 -87 3 -6 -31 -50 -76 -98 l-82 -87 -62 69 c-34 37 -71 79 -81 92 l-20
24 37 46 c20 25 48 58 63 75 39 43 34 121 -9 143 -17 9 -77 -2 -126 -23 -17
-7 -17 -5 2 26 11 18 23 52 27 75 6 39 2 47 -56 127 -61 83 -63 84 -102 83
-39 -2 -44 -6 -99 -82 -42 -57 -59 -88 -59 -111 0 -35 16 -78 38 -105 18 -22
12 -22 -35 -3 -79 33 -125 13 -136 -61 -4 -27 4 -42 59 -107 35 -42 64 -79 64
-84 0 -4 -17 -26 -38 -49 -20 -22 -56 -62 -79 -87 l-41 -47 -50 52 c-84 89
-112 120 -112 124 0 3 25 40 55 83 51 73 55 82 49 120 -4 22 -15 48 -26 58
-18 16 -21 16 -66 -1 -86 -33 -86 -33 -58 9 14 21 26 45 27 54 0 9 2 26 5 38
3 16 -15 49 -60 110 -59 81 -67 88 -100 89 -20 1 -42 -4 -50 -10z m-612 -491
c8 -25 11 -45 8 -45 -4 0 -17 -3 -29 -6 -17 -5 -21 -2 -18 13 1 10 -5 32 -15
50 -18 31 -18 32 3 46 26 17 30 12 51 -58z m2710 24 c-7 -8 -17 -30 -20 -47
-7 -32 -18 -39 -42 -24 -12 8 -10 20 23 110 4 10 10 9 29 -5 21 -16 22 -20 10
-34z"/>
<path d="M2453 7199 c-19 -20 -32 -21 -184 -21 -90 0 -174 -4 -186 -9 -30 -11
-30 -46 2 -92 l24 -36 -42 -12 c-67 -18 -131 -54 -169 -98 -62 -67 -72 -143
-38 -291 27 -121 22 -238 -12 -305 -14 -27 -35 -59 -47 -69 l-21 -19 140 -140
c156 -155 198 -203 225 -262 37 -79 22 -177 -38 -242 -20 -22 -20 -23 -2 -43
27 -29 105 -77 155 -95 59 -21 179 -26 238 -10 52 13 113 42 123 58 13 18 27
-3 34 -50 16 -117 96 -221 215 -280 35 -18 65 -31 67 -30 1 2 5 21 8 43 14 93
51 178 101 232 l21 23 35 -39 c79 -88 164 -125 259 -115 54 6 126 46 141 79
13 28 16 25 -42 44 -55 19 -90 66 -90 123 0 24 14 70 35 118 57 126 52 211
-15 277 l-38 37 59 19 c45 14 68 29 94 59 41 48 43 57 13 57 -37 1 -127 42
-211 97 -99 66 -162 87 -257 87 -65 0 -86 -5 -159 -38 -92 -42 -136 -47 -204
-22 -42 16 -76 24 -109 25 -10 1 -18 7 -18 15 0 31 135 28 187 -4 18 -12 24
-12 38 0 46 38 40 110 -11 143 -19 12 -34 29 -34 37 0 22 -29 60 -44 60 -8 0
-17 -16 -20 -35 -6 -29 -11 -35 -31 -35 -13 0 -57 -11 -98 -23 -102 -33 -131
-26 -163 36 -14 26 -14 31 2 48 10 11 50 35 89 54 66 33 75 34 155 31 59 -3
116 -14 185 -35 159 -50 276 -41 335 26 46 52 53 142 15 200 -22 34 -80 56
-128 50 -80 -11 -118 -61 -97 -130 13 -46 49 -65 93 -49 37 14 49 -11 19 -40
-32 -33 -107 -27 -232 18 -96 34 -114 38 -210 38 -101 1 -138 -7 -231 -48 -14
-6 -15 0 -7 51 12 87 34 136 67 156 39 23 73 21 129 -7 26 -13 64 -29 85 -35
22 -8 37 -19 38 -29 1 -26 7 -53 12 -59 9 -8 46 16 57 37 7 13 21 20 40 20 75
0 101 33 102 130 0 30 5 70 10 89 6 19 11 55 12 81 l1 48 -83 27 c-46 15 -94
24 -106 21 -18 -4 -26 0 -34 19 -7 16 -20 25 -34 26 -13 0 -32 2 -43 4 -11 2
-42 7 -70 10 -27 3 -57 8 -65 11 -9 2 -25 -5 -37 -17z m182 -131 c7 -7 -53
-49 -85 -58 -21 -6 -36 -3 -59 11 -38 23 -39 34 -3 47 26 10 137 10 147 0z"/>
<path d="M7424 7202 c-85 -12 -102 -18 -110 -36 -6 -15 -16 -20 -32 -18 -23 4
-156 -34 -178 -50 -13 -9 -12 -107 1 -128 5 -8 10 -40 11 -70 1 -30 2 -65 3
-78 2 -36 44 -72 85 -72 25 0 43 -8 64 -30 35 -35 52 -38 53 -10 1 11 3 25 4
30 1 6 3 14 4 19 0 5 11 13 24 17 12 4 50 20 85 35 99 45 143 36 181 -40 18
-34 40 -161 29 -161 -3 0 -19 7 -37 16 -96 48 -253 54 -371 15 -36 -12 -72
-25 -80 -30 -21 -12 -78 -24 -120 -26 -45 -2 -90 20 -90 45 0 22 16 35 25 20
11 -17 53 -11 79 13 76 67 5 177 -107 164 -73 -9 -118 -62 -119 -140 -2 -155
148 -210 377 -137 140 45 255 47 335 7 90 -45 103 -59 95 -96 -4 -21 -18 -39
-37 -51 -32 -19 -52 -18 -121 5 -23 8 -61 17 -85 21 -37 6 -44 11 -49 36 -3
15 -10 31 -15 34 -14 9 -46 -25 -53 -57 -4 -16 -13 -29 -20 -29 -7 0 -23 -12
-35 -27 -25 -32 -23 -94 4 -121 14 -14 19 -14 53 2 21 10 56 19 78 21 99 7
148 -26 58 -40 -27 -4 -64 -13 -83 -22 -55 -23 -119 -19 -181 12 -79 39 -143
54 -213 50 -79 -4 -130 -25 -241 -96 -95 -61 -132 -78 -179 -85 -39 -5 -41 -8
-21 -42 23 -38 86 -79 137 -87 l40 -7 -35 -29 c-76 -62 -85 -163 -27 -284 46
-96 48 -168 6 -211 -18 -18 -59 -38 -86 -42 -34 -5 -35 -7 -10 -42 34 -47 93
-73 170 -73 84 0 149 32 213 102 l45 51 31 -35 c52 -59 87 -148 93 -237 1 -16
4 -28 6 -28 2 0 36 17 75 37 127 67 190 154 213 293 3 19 7 36 8 37 2 2 27
-10 57 -26 142 -76 309 -61 447 41 28 21 52 41 52 44 0 4 -12 20 -27 38 -71
85 -71 180 1 286 16 25 97 112 178 194 143 143 148 149 133 170 -39 53 -56 84
-67 121 -15 56 -11 176 11 265 10 41 17 103 17 136 -3 110 -79 197 -209 238
l-56 18 24 39 c30 46 31 61 8 81 -14 12 -47 16 -153 16 -74 0 -151 1 -171 1
-21 1 -46 9 -59 21 -13 11 -26 19 -29 19 -3 -1 -51 -9 -107 -17z m119 -137
c23 -10 21 -20 -8 -39 -31 -21 -89 -21 -106 0 -7 9 -25 21 -39 26 -24 10 -24
11 -5 18 23 9 132 6 158 -5z"/>
<path d="M4646 6867 c-22 -16 -28 -58 -14 -97 27 -78 121 -21 103 62 -10 44
-54 61 -89 35z"/>
<path d="M5297 6863 c-30 -34 -15 -116 25 -129 26 -8 68 21 69 49 2 37 -2 72
-10 79 -3 4 -20 10 -37 14 -22 4 -34 1 -47 -13z"/>
<path d="M3981 6856 c-12 -15 -16 -41 -13 -88 1 -18 9 -29 25 -34 35 -12 41
-12 64 9 16 14 21 28 19 58 -2 21 -9 45 -16 54 -16 19 -64 20 -79 1z"/>
<path d="M5957 6852 c-38 -41 -7 -136 40 -127 10 2 21 4 25 4 15 2 31 46 30
81 -2 56 -60 81 -95 42z"/>
<path d="M3726 6340 c-1 -3 -2 -357 -2 -787 1 -431 -1 -783 -4 -783 -3 1 -16
7 -30 15 -31 18 -64 19 -91 3 -17 -11 -22 -10 -39 12 -37 47 -99 185 -110 245
-7 33 -21 88 -32 123 -15 51 -23 62 -41 62 -131 3 -182 18 -254 77 -51 42 -55
43 -68 26 -22 -29 -46 -116 -49 -174 -3 -80 21 -119 160 -255 136 -134 145
-151 126 -247 -10 -53 -10 -162 0 -173 3 -3 26 9 49 26 29 20 45 27 48 19 2
-7 -3 -17 -11 -23 -51 -39 -61 -99 -24 -143 13 -15 27 -43 31 -61 3 -18 14
-39 22 -48 14 -14 17 -12 34 15 10 17 26 31 34 31 8 0 15 5 15 10 0 6 19 1 43
-11 46 -24 74 -29 98 -18 11 6 22 -3 39 -32 31 -50 57 -51 66 -3 3 19 3 52 -1
72 -12 58 -11 95 2 99 6 2 14 -13 18 -39 24 -144 101 -341 183 -468 61 -95
207 -246 292 -301 146 -96 316 -163 493 -196 100 -19 428 -25 522 -9 430 69
745 292 910 642 39 82 92 248 101 314 4 25 11 48 18 52 18 12 25 -37 11 -79
-26 -75 12 -164 45 -104 19 36 39 49 80 49 23 1 56 9 73 20 31 18 33 18 62 1
16 -10 33 -27 37 -39 14 -38 42 -10 52 53 1 9 9 24 18 34 47 54 46 102 -2 148
-42 41 -26 50 25 15 24 -17 46 -27 48 -23 14 25 16 71 6 131 -22 132 -14 155
87 252 208 199 218 222 179 385 -7 26 -31 83 -41 94 -1 2 -23 -13 -47 -33 -62
-51 -131 -79 -202 -82 -33 -1 -66 -3 -73 -3 -18 -1 -51 -101 -67 -201 -5 -34
-81 -196 -110 -235 -14 -18 -17 -18 -43 -3 -29 17 -71 9 -103 -19 -16 -13 -17
43 -17 764 -1 428 -1 785 -1 793 -1 13 -149 15 -1282 15 -704 0 -1282 -2
-1283 -5z"/>
<path d="M1282 6176 c-75 -53 -109 -125 -99 -210 8 -60 19 -81 85 -148 l55
-57 -1 -69 -1 -70 58 1 c52 1 63 -3 107 -36 113 -85 124 -91 184 -95 31 -2 66
1 77 6 17 10 22 7 32 -14 38 -83 -35 -141 -289 -229 -74 -26 -158 -60 -187
-76 -80 -46 -149 -113 -180 -177 -24 -50 -28 -68 -28 -147 1 -78 4 -97 27
-140 66 -126 204 -195 394 -197 39 0 89 3 111 7 l41 6 16 -88 c9 -48 18 -99
21 -113 3 -14 8 -38 10 -55 3 -16 8 -38 11 -47 5 -17 -11 -18 -245 -18 -212 0
-251 -2 -251 -14 0 -8 4 -17 9 -21 6 -3 13 -26 17 -50 11 -77 -28 -166 -112
-253 l-23 -23 222 -332 222 -332 166 0 c171 -1 269 14 269 42 0 7 5 23 11 37
12 25 23 25 83 0 18 -7 19 -4 12 37 -4 24 -8 53 -9 64 -6 55 -101 125 -171
125 -40 0 -87 -32 -116 -79 -14 -23 -28 -41 -33 -41 -4 0 -43 35 -87 78 -100
99 -142 180 -142 275 1 107 41 174 130 214 60 28 141 32 216 12 40 -11 133
-56 171 -83 19 -14 26 -9 106 67 47 45 121 115 164 156 l77 73 -16 77 c-9 42
-19 90 -22 106 -3 17 -9 45 -14 64 -5 19 -8 37 -6 39 3 2 39 -6 81 -17 227
-63 323 -173 279 -322 -9 -29 -29 -61 -56 -87 -41 -41 -41 -43 -23 -56 11 -8
81 -62 155 -121 74 -58 203 -159 285 -223 83 -64 152 -119 155 -122 3 -3 38
-31 79 -63 87 -66 47 -61 444 -58 139 1 186 4 181 13 -7 11 43 7 93 -7 20 -6
21 -5 13 29 -10 47 -34 83 -61 91 -11 4 -40 25 -63 47 -112 109 -157 120 -249
57 -44 -30 -66 -39 -99 -39 -43 0 -45 2 -268 225 -161 162 -219 225 -205 226
42 2 81 10 125 26 47 17 130 64 130 73 0 3 -26 19 -58 37 -121 67 -194 145
-339 363 -99 147 -211 273 -270 304 -30 15 -35 15 -83 -3 -62 -24 -126 -62
-162 -96 -33 -31 -34 -36 -8 -60 45 -41 7 -121 -62 -132 -35 -5 -38 -4 -39 18
-1 13 -3 39 -5 58 -11 93 44 162 187 236 144 74 228 131 292 198 31 33 57 63
57 66 0 3 -23 20 -51 36 -75 44 -142 113 -177 185 -18 35 -32 69 -32 77 0 16
5 17 -63 -7 -93 -33 -225 -26 -324 15 -20 9 -37 14 -38 13 0 -2 -7 -32 -14
-68 -28 -142 -127 -367 -196 -447 -5 -6 -28 -33 -50 -59 -73 -87 -195 -161
-300 -182 -16 -3 -65 -5 -107 -5 -64 1 -88 7 -143 33 -84 40 -117 86 -117 159
1 124 84 195 332 284 206 75 321 153 347 239 18 62 9 143 -22 190 -21 31 -25
45 -18 62 5 11 11 42 12 68 4 78 -23 122 -160 256 -107 105 -125 119 -139 108
-47 -41 -146 -44 -200 -6 -33 23 -70 87 -70 120 0 25 -7 25 -48 -4z"/>
<path d="M8689 6193 c-8 -91 -64 -150 -150 -160 -50 -6 -83 4 -121 35 -15 12
-31 0 -146 -116 -113 -112 -132 -136 -145 -180 -15 -49 -14 -92 3 -138 7 -16
4 -29 -9 -46 -43 -56 -53 -155 -22 -223 38 -84 144 -153 346 -225 183 -66 266
-119 303 -193 79 -158 -59 -293 -288 -281 -259 14 -493 270 -596 652 -8 29
-14 63 -14 76 0 33 -8 37 -49 21 -117 -45 -231 -49 -339 -11 -42 15 -52 13
-52 -13 0 -22 -49 -112 -80 -148 -33 -37 -96 -86 -143 -110 l-38 -19 56 -61
c63 -70 144 -126 290 -202 106 -55 155 -93 180 -140 18 -36 24 -106 13 -148
-11 -42 -43 -44 -87 -7 -37 31 -42 78 -11 116 l19 25 -27 26 c-41 38 -119 84
-173 102 -46 16 -48 16 -86 -8 -81 -51 -146 -128 -278 -325 -49 -74 -114 -161
-144 -194 -57 -63 -156 -139 -211 -162 l-33 -14 40 -26 c53 -35 128 -63 191
-72 l51 -6 -223 -224 c-221 -222 -224 -224 -266 -224 -33 0 -56 9 -102 40 -92
61 -118 56 -227 -39 -36 -31 -74 -60 -84 -66 -28 -14 -54 -54 -62 -94 -7 -32
-6 -34 16 -27 48 15 81 18 88 8 5 -9 279 -16 491 -13 l65 1 160 126 c88 69
174 136 190 149 17 14 98 77 180 141 83 64 169 132 193 151 l43 35 -34 32
c-52 49 -71 92 -72 163 0 52 4 67 30 105 48 68 150 125 271 153 10 2 29 7 42
11 28 8 28 9 -5 -154 l-27 -134 54 -50 c30 -28 104 -97 164 -154 l110 -103 25
18 c97 69 209 102 303 89 85 -11 141 -46 178 -110 26 -47 29 -60 27 -128 -4
-104 -36 -167 -139 -270 -44 -44 -83 -80 -88 -80 -5 0 -18 16 -30 35 -37 60
-78 87 -124 83 -81 -9 -158 -63 -162 -116 -2 -15 -8 -43 -13 -62 -12 -38 -1
-60 21 -43 21 17 57 22 67 9 5 -6 12 -23 16 -37 11 -42 58 -52 259 -54 l178
-2 219 330 c121 181 219 332 219 336 0 3 -19 26 -41 51 -58 66 -89 134 -89
196 0 29 4 55 9 58 5 3 11 17 13 31 l5 25 -248 0 c-137 0 -249 1 -249 3 0 1 7
38 15 81 8 44 18 93 20 110 3 17 10 53 16 79 l11 49 37 -7 c54 -11 194 -7 248
6 187 46 280 150 288 322 6 120 -67 240 -189 312 -44 26 -198 94 -214 95 -18
1 -113 36 -169 63 -79 38 -123 80 -123 117 0 55 6 59 78 53 79 -6 116 7 182
64 73 62 109 76 167 62 18 -4 34 -4 34 0 1 3 2 38 3 76 l2 71 48 44 c107 98
121 240 34 329 -34 34 -87 67 -89 54z"/>
<path d="M2470 3259 c-8 -13 -4 -21 18 -35 15 -10 32 -22 39 -28 6 -6 34 -27
62 -46 98 -67 126 -64 -668 -70 l-713 -5 61 -54 c34 -29 87 -77 118 -106 l55
-52 -126 -107 c-69 -59 -126 -111 -126 -114 0 -4 330 -7 733 -7 578 0 737 3
749 13 9 7 14 24 13 40 -2 15 -6 52 -9 83 l-6 57 2338 -2 c1551 -1 2336 -4
2335 -11 -10 -68 -11 -165 0 -172 14 -9 1487 -11 1487 -2 0 3 -53 50 -117 105
-65 54 -123 103 -128 109 -8 7 25 43 105 115 l116 105 -712 5 c-392 3 -715 8
-718 11 -10 9 16 34 97 93 139 101 421 91 -2461 92 -2395 1 -2534 0 -2542 -17z"/>
</g>
</svg>
